<?xml version="1.0" encoding="utf-8"?>
<svg viewBox="187.018 204.37 128.534 92.545" xmlns="http://www.w3.org/2000/svg">
  <g transform="matrix(0.10000000149011612, 0, 0, -0.10000000149011612, 0, 500)" fill="#F6F5EF" stroke="none">
    <path d="M2098 2897 c-59 -17 -68 -23 -68 -44 0 -19 4 -23 23 -19 12 3 48 8&#10;80 11 61 7 79 23 60 53 -14 22 -20 22 -95 -1z"/>
    <path d="M2823 2913 c-7 -2 -13 -17 -13 -33 0 -27 2 -29 58 -35 107 -11 107&#10;-11 107 9 0 14 -13 24 -50 36 -75 26 -89 29 -102 23z"/>
    <path d="M2094 2828 l-81 -10 -61 -270 -61 -271 36 -86 c19 -47 38 -90 40 -94&#10;6 -10 13 1 177 306 l128 236 -33 100 c-24 72 -38 101 -49 100 -8 -1 -51 -6&#10;-96 -11z m44 -99 c-6 -63 -68 -61 -68 2 0 27 3 29 36 29 34 0 35 -1 32 -31z&#10;m-59 -58 c13 -24 -14 -51 -52 -51 -24 0 -27 4 -27 35 0 33 2 35 35 35 23 0 37&#10;-6 44 -19z m131 -16 c0 -32 -3 -35 -29 -35 -35 0 -55 22 -46 50 5 15 15 20 41&#10;20 32 0 34 -2 34 -35z m-70 -70 c0 -33 -2 -35 -35 -35 -33 0 -35 2 -35 35 0&#10;39 24 59 52 44 12 -6 18 -21 18 -44z"/>
    <path d="M2283 2740 l31 -100 184 2 185 3 33 98 33 97 -249 0 -248 0 31 -100z"/>
    <path d="M2761 2738 l-33 -103 148 -272 c82 -150 151 -270 154 -265 4 4 23 45&#10;43 92 l35 85 -59 264 c-32 146 -59 268 -59 272 0 3 -30 10 -67 13 -38 4 -82 9&#10;-98 12 l-31 5 -33 -103z m153 -1 c9 -15 7 -21 -8 -32 -35 -26 -74 13 -44 43&#10;16 16 38 12 52 -11z m-85 -76 c13 -24 -9 -57 -33 -48 -23 9 -31 34 -16 52 17&#10;20 37 19 49 -4z m165 -3 c8 -14 7 -21 -6 -34 -30 -30 -75 9 -48 42 16 18 39&#10;15 54 -8z m-80 -80 c8 -14 7 -21 -6 -34 -30 -30 -75 9 -48 42 16 18 39 15 54&#10;-8z"/>
    <path d="M2246 2508 c-44 -82 -48 -98 -20 -98 8 0 58 -19 112 -42 129 -56 169&#10;-56 317 1 61 24 118 46 127 50 15 5 12 16 -28 89 l-45 82 -209 0 -209 0 -45&#10;-82z m138 21 c17 -14 26 -30 26 -50 0 -65 -80 -93 -119 -43 -27 35 -26 59 4&#10;89 30 30 54 31 89 4z m136 4 c0 -15 -2 -16 -10 -3 -9 13 -11 13 -20 0 -8 -13&#10;-10 -12 -10 3 0 10 8 17 20 17 12 0 20 -7 20 -17z m178 0 c35 -30 38 -68 8&#10;-97 -66 -67 -159 22 -94 91 26 27 58 30 86 6z m-180 -150 c-10 -2 -26 -2 -35&#10;0 -10 3 -2 5 17 5 19 0 27 -2 18 -5z"/>
    <path d="M2318 2519 c-28 -16 -23 -67 7 -81 21 -9 28 -8 45 7 26 24 25 50 -2&#10;69 -26 19 -27 19 -50 5z"/>
    <path d="M2629 2511 c-17 -13 -20 -24 -15 -44 13 -55 90 -41 84 15 -4 40 -38&#10;55 -69 29z"/>
  </g>
</svg>