<svg xmlns="http://www.w3.org/2000/svg" width="666.667" height="666.667" version="1.0" viewBox="0 0 500 500">
  <symbol id="controller-white">
    <g fill="#FFFFFF">
      <path d="M209.8 210.3c-5.9 1.7-6.8 2.3-6.8 4.4 0 1.9.4 2.3 2.3 1.9 1.2-.3 4.8-.8 8-1.1 6.1-.7 7.9-2.3 6-5.3-1.4-2.2-2-2.2-9.5.1zM282.3 208.7c-.7.2-1.3 1.7-1.3 3.3 0 2.7.2 2.9 5.8 3.5 10.7 1.1 10.7 1.1 10.7-.9 0-1.4-1.3-2.4-5-3.6-7.5-2.6-8.9-2.9-10.2-2.3zM209.4 217.2l-8.1 1-6.1 27-6.1 27.1 3.6 8.6c1.9 4.7 3.8 9 4 9.4.6 1 1.3-.1 17.7-30.6l12.8-23.6-3.3-10c-2.4-7.2-3.8-10.1-4.9-10-.8.1-5.1.6-9.6 1.1zm4.4 9.9c-.6 6.3-6.8 6.1-6.8-.2 0-2.7.3-2.9 3.6-2.9 3.4 0 3.5.1 3.2 3.1zm-5.9 5.8c1.3 2.4-1.4 5.1-5.2 5.1-2.4 0-2.7-.4-2.7-3.5 0-3.3.2-3.5 3.5-3.5 2.3 0 3.7.6 4.4 1.9zm13.1 1.6c0 3.2-.3 3.5-2.9 3.5-3.5 0-5.5-2.2-4.6-5 .5-1.5 1.5-2 4.1-2 3.2 0 3.4.2 3.4 3.5zm-7 7c0 3.3-.2 3.5-3.5 3.5s-3.5-.2-3.5-3.5c0-3.9 2.4-5.9 5.2-4.4 1.2.6 1.8 2.1 1.8 4.4zM228.3 226l3.1 10 18.4-.2 18.5-.3 3.3-9.8 3.3-9.7h-49.7l3.1 10zM276.1 226.2l-3.3 10.3 14.8 27.2c8.2 15 15.1 27 15.4 26.5.4-.4 2.3-4.5 4.3-9.2l3.5-8.5-5.9-26.4c-3.2-14.6-5.9-26.8-5.9-27.2 0-.3-3-1-6.7-1.3-3.8-.4-8.2-.9-9.8-1.2l-3.1-.5-3.3 10.3zm15.3.1c.9 1.5.7 2.1-.8 3.2-3.5 2.6-7.4-1.3-4.4-4.3 1.6-1.6 3.8-1.2 5.2 1.1zm-8.5 7.6c1.3 2.4-.9 5.7-3.3 4.8-2.3-.9-3.1-3.4-1.6-5.2 1.7-2 3.7-1.9 4.9.4zm16.5.3c.8 1.4.7 2.1-.6 3.4-3 3-7.5-.9-4.8-4.2 1.6-1.8 3.9-1.5 5.4.8zm-8 8c.8 1.4.7 2.1-.6 3.4-3 3-7.5-.9-4.8-4.2 1.6-1.8 3.9-1.5 5.4.8zM224.6 249.2c-4.4 8.2-4.8 9.8-2 9.8.8 0 5.8 1.9 11.2 4.2 12.9 5.6 16.9 5.6 31.7-.1 6.1-2.4 11.8-4.6 12.7-5 1.5-.5 1.2-1.6-2.8-8.9l-4.5-8.2h-41.8l-4.5 8.2zm13.8-2.1c1.7 1.4 2.6 3 2.6 5 0 6.5-8 9.3-11.9 4.3-2.7-3.5-2.6-5.9.4-8.9s5.4-3.1 8.9-.4zm13.6-.4c0 1.5-.2 1.6-1 .3-.9-1.3-1.1-1.3-2 0-.8 1.3-1 1.2-1-.3 0-1 .8-1.7 2-1.7s2 .7 2 1.7zm17.8 0c3.5 3 3.8 6.8.8 9.7-6.6 6.7-15.9-2.2-9.4-9.1 2.6-2.7 5.8-3 8.6-.6zm-18 15c-1 .2-2.6.2-3.5 0-1-.3-.2-.5 1.7-.5s2.7.2 1.8.5z"/>
      <path d="M231.8 248.1c-2.8 1.6-2.3 6.7.7 8.1 2.1.9 2.8.8 4.5-.7 2.6-2.4 2.5-5-.2-6.9-2.6-1.9-2.7-1.9-5-.5zM262.9 248.9c-1.7 1.3-2 2.4-1.5 4.4 1.3 5.5 9 4.1 8.4-1.5-.4-4-3.8-5.5-6.9-2.9z"/>
    </g>
  </symbol>
  
  <symbol id="new-icon">
    <!-- Тут буде код нового зображення -->
    <g fill="#FFFFFF">
      <!-- шляхи чи інші елементи -->
    </g>
  </symbol>
</svg>
