<svg xmlns="http://www.w3.org/2000/svg" id="logo-whiteBG" width="1280" height="1280" viewBox="0 0 2000 2000"><path fill="#FEFFFE" d="M0 0h2000v2000H0z"/><path fill="#39383E" d="m1117 716 40 4 37 4 2 2 11 50 25 112 11 49v8l-7 16-24 56h-3l-10-19-14-26-12-22-28-52-13-23-12-23-12-22-14-26-2-4v-8l13-40 11-35z"/><path fill="#38383E" d="M877 716h6l11 34 14 43v7l-7 12-7 14-13 23-8 15-6 12-6 10-6 12-6 10-6 12-6 10-6 12-12 22-15 28-10 18-5 8-2-3-10-22-13-31-7-17v-10l25-111 22-99 7-2 49-5z"/><path fill="#39383E" d="M916 816h168l5 8 30 56 1 5-21 5-22 8-31 13-23 8-12 3-7 1h-19l-21-5-20-8-31-14-19-7-14-4-1-2 12-23 12-22 11-20zM900 716h199l-2 10-16 48-6 21-7 2H927l-3-5-20-61-3-11z"/><path fill="#124B97" d="M1091 1069h92l1 1v101l-3 1h-11l-9-1-1-2-1-16-53-1v19l-1 1h-18l-5-1v-101zM577 1069h80l12 1v101h-24l-1-18-53-1v19l-2 1h-22v-102zM693 1069h132l1 1v101h-23l-1-6v-71h-33l-1 1-1 76-2 1h-19l-2-1v-77h-36l1 77-1 1h-21l-2-1v-101zM864 1069h79l1 1v23l-77 1-1 1v13l77 1 1 1v22l-10 1h-62l-6 1v11l1 2 76 1 1 1v22l-2 1h-92l-8-1v-101zM458 1069h93v24l-78 1v52l1 1h52l1-14-19-1v-23l41-1 2 1v62l-2 1h-75l-25-1v-101zM1207 1069h16l1 78h53l1-77 17-1h6l1 1v101l-3 1h-89l-10-1v-101zM968 1069h16l2 1 12 74 1 3h28l11-67 2-10 1-1h20l5 1-16 100-3 2h-61l-9-1-2-5-11-67-4-29zM1444 1069h90l4 1v21l-1 2-37 1-1 5v72l-11 1-13-1v-77l-39-1v-23z"/><path fill="#124A96" d="M1327 1069h11l3 1 1 58v20h77l1 1v15l-1 7-2 1h-91l-8-1v-101z"/><path fill="#39383E" d="M1177 1224h29l6 3 2 5-2 13-6 27-3 6-5 4-2 1h-37l-4-4v-12l6-28 3-8 6-6zM796 1224h14l6 2 5 4v2l2-1 1-7h8l2 1-5 25-6 27-2 6h-9v-8l-8 7-3 1h-24l-4-4v-12l6-29 5-10 5-3zM721 1200h27l18 1 3 5v9l-2 4h-10l-1-7h-37l-5 1-7 30-5 25 1 4h41l4-14 1-8h-17l-1-3 1-7 1-1h30l-1 10-5 23-4 7-3 3-11 2h-36l-11-2-3-5 2-15 11-50 4-8 4-3zM1060 1200h42l9 1-3 10-53 1-3 13-1 11 47 1 4 3 1 8-5 24-5 8-6 3-9 1h-46l-1-5 2-6 53-1 4-20v-3l-38-1-9-1-4-4-1-2v-8l5-22 5-8 3-2z"/><path fill="#FEFFFE" d="M1057 833h12l12 6 5 6 4 9v12l-4 10-7 7-8 4-4 1h-9l-11-4-7-7-4-7-1-4v-12l5-10 4-5 9-5z"/><path fill="#39383E" d="M957 1224h23l8 2 3 6-3 19-3 7-1 1-39 1-2 9v3l3 1h26l2-7 2-1h7l1 3-4 10-5 4-3 1h-35l-5-4v-11l6-30 4-9 5-4z"/><path fill="#FEFFFE" d="M931 833h11l10 4 7 6 5 10v14l-5 10-7 7-6 3-5 1h-7l-10-3-6-4-7-9-2-7 1-13 4-8 5-5 4-3z"/><path fill="#39383E" d="M1280 1225h39l4 4v10l-4 18-2 2-39 1-3 13h31l1-7 2-1h7l1 2-4 11-5 4-3 1h-35l-5-3v-12l6-29 4-10zM850 1224h9l-1 7 9-5 1-1 14-1 5 2 2 6 7-4 4-3 14-1 7 3 2 3v7l-9 42-1 4h-10l2-13 7-35h-13l-7 3-4 10-8 35-7 1-3-1 2-13 5-23 2-12h-13l-6 2-3 5-9 37-2 5-9-1 1-8 11-50z"/><path fill="#FEFFFE" d="M592 1093h51l2 1v34l-7 1h-45l-3-2v-32zM1107 1093h52l1 1v34l-47 1-7-1-1-2v-30z"/><path fill="#39383E" d="m866 684 5 1 8 6 1 5-1 15-7 2-54 6h-5l-1-1v-16l7-3 43-14zM1133 684l7 1 50 16 1 1v17l-16-1-51-6-1-20 8-7z"/><path fill="#FEFFFE" d="m803 1231 11 1 6 5v8l-5 20-3 6-5 4-4 1h-16l-4-2 1-11 4-19 4-10 3-2zM1176 1234h23l4 2-4 23-4 14-1 1h-25l-4-2 2-14 5-21z"/><path fill="#39383E" d="M1130 1201h9l-1 10-3 13h19l-2 9-1 1-18 1-7 32v5l4 1 13 1v6l-2 3-13 1-9-1-4-4-1-5 4-22 10-47zM1058 841h9l8 4 5 6 1 3v12l-4 8-8 5-9 1-8-3-5-4-3-6-1-8 3-10 7-6zM932 841h8l7 3 6 5 2 4 1 11-3 7-5 5-5 3-8 1-7-2-8-7-2-5v-10l3-8 8-6z"/><path fill="#FEFFFE" d="M802 775h22l5 5 6 8-2 5-9 9h-23l-1-2v-10l1-14z"/><path fill="#39383E" d="M1232 1224h8l1 3v4l10-6h15l-3 9-16 1-6 3-4 11-8 34h-10l6-31 6-27z"/><path fill="#FEFFFE" d="m840 796 5 1 8 7 2 2v24h-25l-1-1v-22l5-5zM861 775h21l1 1v25l-1 1-19 1-6-4-7-9 1-5 7-8zM830 748h24l1 1v22l-11 10-5-1-8-8-2-3v-20zM1183 780l10 2 5 5 2 5-1 6-6 7-5 2-7-1-5-4-3-6 1-8 5-6zM1150 813h7l7 4 3 6v6l-5 8-4 2h-9l-6-5-3-9 4-8zM1149 748h9l6 4 3 5v7l-4 6-6 4-9-1-5-4-3-9 4-8zM1118 780l8 1 5 3 3 5v8l-4 6-4 3-6 1-7-3-4-5-1-2v-7l4-6zM1285 1234h27l1 3-1 11-1 1h-31l1-9 3-5zM953 1234h25l1 1v13l-1 1h-31l1-9 3-5zM991 896h16l3 1v2l-3 1h-16l-2-3zM1000 831l4 1v10l-3 1-2-1-1-9z"/><path fill="#FEFFFE" d="m992 832 7 1-2 9h-5l1-7zM985 831l4 2-1 9-3-1-1-9zM1011 832l4 1v7l-3 2-1-1z"/></svg>